<?xml version="1.0" encoding="UTF-8"?>
<!DOCTYPE svg PUBLIC "-//W3C//DTD SVG 1.1//EN" "http://www.w3.org/Graphics/SVG/1.1/DTD/svg11.dtd">
<!-- Creator: CorelDRAW -->
<svg xmlns="http://www.w3.org/2000/svg" xml:space="preserve" width="334.214mm" height="49.639mm" version="1.1" style="shape-rendering:geometricPrecision; text-rendering:geometricPrecision; image-rendering:optimizeQuality; fill-rule:evenodd; clip-rule:evenodd"
viewBox="0 0 33566 4985.37"
 xmlns:xlink="http://www.w3.org/1999/xlink"
 xmlns:xodm="http://www.corel.com/coreldraw/odm/2003">
 <defs>
  <style type="text/css">
   <![CDATA[
    .fil0 {fill:#111827;fill-rule:nonzero}
   ]]>
  </style>
 </defs>
 <g id="Camada_x0020_1">
  <metadata id="CorelCorpID_0Corel-Layer"/>
  <g id="_1743109330320">
   <path class="fil0" d="M3616.98 4740.17c-337.96,163.49 -780.78,245.21 -1326.37,245.21 -711.28,0 -1271.19,-208.73 -1678.72,-627.3 -408.63,-418.56 -611.89,-976.28 -611.89,-1673.17 0,-742.2 228.61,-1344.13 686.94,-1805.75 458.32,-461.69 1053.62,-692.49 1784.78,-692.49 452.76,0 834.94,57.45 1145.26,172.26l0 1006.18c-310.33,-185.57 -663.78,-278.31 -1061.36,-278.31 -435.08,0 -787.43,136.88 -1054.71,410.81 -267.28,273.93 -400.88,644.99 -400.88,1113.25 0,448.39 125.93,806.22 378.8,1072.4 251.78,266.19 592.01,399.78 1019.41,399.78 407.54,0 780.78,-99.4 1118.74,-298.19l228.68 840.11 -228.68 115.21z"/>
   <path class="fil0" d="M4778.91 4985.37c-552.17,0 -986.23,-154.58 -1302.11,-463.88 -315.88,-309.23 -473.82,-729.98 -473.82,-1260.08 0,-547.87 163.49,-977.47 491.51,-1286.69 328.01,-309.23 772.01,-463.89 1329.74,-463.89 549.97,0 981.84,154.66 1294.35,463.89 312.6,309.22 469.36,718.95 469.36,1228.15 0,549.97 -161.22,985.12 -483.68,1304.3 -322.53,319.16 -764.26,478.2 -1325.35,478.2zm26.52 -2691.48c-241.84,0 -429.6,82.89 -563.28,248.49 -133.6,166.79 -200.99,402.05 -200.99,705.73 0,636.14 257.34,954.21 770.92,954.21 489.24,0 734.36,-326.91 734.36,-979.57 0,-619.63 -247.32,-928.86 -741.02,-928.86z"/>
   <path class="fil0" d="M10002.45 4904.75l-1019.34 0 0 -1841.04c0,-513.58 -183.37,-769.83 -550.05,-769.83 -176.64,0 -322.46,67.39 -436.18,203.26 -114.89,135.79 -172.34,309.23 -172.34,517.96l0 1889.65 -1021.6 0 0 -3313.3 1021.6 0 0 524.62 13.31 0c244.03,-404.17 598.58,-605.24 1064.66,-605.24 733.27,0 1099.95,455.04 1099.95,1365.12l0 2028.8z"/>
   <path class="fil0" d="M13604.78 4904.75l-1022.69 0 0 -456.12 -12.21 0c-232.99,357.83 -575.33,536.74 -1025.99,536.74 -414.1,0 -747.67,-145.81 -999.45,-438.45 -252.95,-291.54 -378.88,-700.17 -378.88,-1224.77 0,-547.78 139.16,-986.31 417.47,-1316.51 278.32,-330.2 642.8,-494.8 1093.45,-494.8 427.41,0 724.43,152.47 893.41,459.5l12.21 0 0 -1970.34 1022.69 0 0 4904.75zm-1002.82 -1611.33l0 -249.59c0,-215.39 -63,-394.3 -187.76,-536.74 -124.84,-142.52 -288.25,-213.2 -488.14,-213.2 -226.43,0 -404.24,88.36 -531.27,266.19 -127.03,178.91 -191.05,423.02 -191.05,733.35 0,291.54 61.84,515.77 184.47,672.62 123.66,157.86 293.74,236.28 511.31,236.28 207.64,0 376.61,-82.8 506.92,-248.49 130.32,-166.79 195.51,-386.55 195.51,-660.4z"/>
   <path class="fil0" d="M17165.02 4904.75l-1019.33 0 0 -504.73 -15.5 0c-252.88,389.85 -589.74,585.35 -1012.76,585.35 -768.65,0 -1151.92,-464.97 -1151.92,-1394.85l0 -1999.07 1019.42 0 0 1908.51c0,468.27 185.49,702.35 556.62,702.35 183.3,0 329.12,-64.02 439.54,-192.14 110.44,-128.12 164.6,-302.65 164.6,-522.42l0 -1896.31 1019.33 0 0 3313.3z"/>
   <polygon class="fil0" points="20201.81,4904.75 17227.63,4904.75 17227.63,4480.64 18890.93,2345.78 17393.32,2345.78 17393.32,1591.45 20188.58,1591.45 20188.58,2096.19 18612.62,4150.44 20201.81,4150.44 "/>
   <path class="fil0" d="M24483.24 4904.77l-1138.59 0c-361.53,-1130.39 -706.58,-2262.35 -1068.02,-3393.93 -36.49,-116.99 -62.91,-256.16 -78.42,-417.47l-25.38 0c-11.08,135.87 -37.54,270.65 -80.67,404.23 -365.36,1138.56 -694.6,2269.73 -1054.71,3407.16l-1133.15 0 1689.77 -4639.68 1239.19 0 1649.99 4639.68z"/>
   <path class="fil0" d="M27661.39 4904.75l-1019.33 0 0 -504.73 -15.5 0c-252.88,389.85 -589.73,585.35 -1012.76,585.35 -768.64,0 -1151.91,-464.97 -1151.91,-1394.85l0 -1999.07 1019.41 0 0 1908.51c0,468.27 185.49,702.35 556.63,702.35 183.3,0 329.11,-64.02 439.54,-192.14 110.43,-128.12 164.59,-302.65 164.59,-522.42l0 -1896.31 1019.33 0 0 3313.3z"/>
   <path class="fil0" d="M30076.44 4866.1c-151.29,79.51 -378.8,119.27 -682.56,119.27 -720.04,0 -1081.24,-374.42 -1081.24,-1122.09l0 -1517.5 -536.75 0 0 -754.33 536.75 0 0 -714.49 1019.41 -291.62 0 1006.1 744.39 0 0 754.33 -744.39 0 0 1339.67c0,344.6 136.97,516.87 410.82,516.87 108.24,0 219.77,-30.91 333.57,-93.83l0 757.61z"/>
   <path class="fil0" d="M31756.97 4985.37c-552.17,0 -986.23,-154.58 -1302.11,-463.88 -315.88,-309.23 -473.82,-729.98 -473.82,-1260.08 0,-547.87 163.49,-977.47 491.51,-1286.69 328.01,-309.23 772.01,-463.89 1329.74,-463.89 549.97,0 981.84,154.66 1294.35,463.89 312.6,309.22 469.36,718.95 469.36,1228.15 0,549.97 -161.22,985.12 -483.68,1304.3 -322.53,319.16 -764.26,478.2 -1325.35,478.2zm26.52 -2691.48c-241.84,0 -429.6,82.89 -563.28,248.49 -133.6,166.79 -200.99,402.05 -200.99,705.73 0,636.14 257.34,954.21 770.92,954.21 489.24,0 734.36,-326.91 734.36,-979.57 0,-619.63 -247.32,-928.86 -741.02,-928.86z"/>
  </g>
 </g>
</svg>
